# xmcd CD database file
#
# Track frame offsets:
#	150
#	23089
#	45867
#	62829
#	72129
#	95355
#	114695
#	124390
#	147132
#	159175
#	177792
#	195330
#	208306
#
# Disc length: 3132 seconds
#
# Revision: 0
# Processed by: cddbd v1.5.2PL0 Copyright (c) Steve Scherf et al.
# Submitted via: CDex 1.70beta2
#
DISCID=ad0c3a0d
DTITLE=Himpel Eskildsen Duo - 3rd Room
DYEAR=2017
DGENRE=Jazz
TTITLE0=Yesterday's Blues
TTITLE1=The Lydian Sharp Enters
TTITLE2=After Math
TTITLE3=1st Room
TTITLE4=Melancholy Dreams
TTITLE5=Dennis fra Venice
TTITLE6=2nd Room
TTITLE7=Green Eggs
TTITLE8=Duerne Flyver
TTITLE9=3rd Room
TTITLE10=Wardencliffe
TTITLE11=If I Knew
TTITLE12=Lovetune #4
EXTD=YEAR: 2017
EXTT0=
EXTT1=
EXTT2=
EXTT3=
EXTT4=
EXTT5=
EXTT6=
EXTT7=
EXTT8=
EXTT9=
EXTT10=
EXTT11=
EXTT12=
PLAYORDER=
